<svg width="51" height="40" viewBox="0 0 51 40" fill="none" xmlns="http://www.w3.org/2000/svg">
<path fill-rule="evenodd" clip-rule="evenodd" d="M19.0924 23.1758C19.952 22.3162 21.1178 21.8333 22.3333 21.8333H29.6667C30.8822 21.8333 32.048 22.3162 32.9076 23.1758C33.7671 24.0353 34.25 25.2011 34.25 26.4167V28.25C34.25 28.7563 33.8396 29.1667 33.3333 29.1667C32.8271 29.1667 32.4167 28.7563 32.4167 28.25V26.4167C32.4167 25.6873 32.1269 24.9879 31.6112 24.4721C31.0955 23.9564 30.396 23.6667 29.6667 23.6667H22.3333C21.604 23.6667 20.9045 23.9564 20.3888 24.4721C19.8731 24.9879 19.5833 25.6873 19.5833 26.4167V28.25C19.5833 28.7563 19.1729 29.1667 18.6667 29.1667C18.1604 29.1667 17.75 28.7563 17.75 28.25V26.4167C17.75 25.2011 18.2329 24.0353 19.0924 23.1758Z" fill="white"/>
<path fill-rule="evenodd" clip-rule="evenodd" d="M17.75 28.14C17.75 27.5325 18.2425 27.04 18.85 27.04H33.15C33.7575 27.04 34.25 27.5325 34.25 28.14C34.25 28.7475 33.7575 29.24 33.15 29.24H18.85C18.2425 29.24 17.75 28.7475 17.75 28.14Z" fill="white"/>
<path fill-rule="evenodd" clip-rule="evenodd" d="M26 12.6667C24.4812 12.6667 23.25 13.8979 23.25 15.4167C23.25 16.9355 24.4812 18.1667 26 18.1667C27.5187 18.1667 28.75 16.9355 28.75 15.4167C28.75 13.8979 27.5187 12.6667 26 12.6667ZM21.4166 15.4167C21.4166 12.8854 23.4687 10.8333 26 10.8333C28.5313 10.8333 30.5833 12.8854 30.5833 15.4167C30.5833 17.948 28.5313 20 26 20C23.4687 20 21.4166 17.948 21.4166 15.4167Z" fill="white"/>
</svg>
