<svg width="51" height="40" viewBox="0 0 51 40" fill="none" xmlns="http://www.w3.org/2000/svg">
<path d="M31.5 16.0018C31.5 14.4105 30.8679 12.8843 29.7426 11.7591C28.6174 10.6339 27.0913 10.0018 25.5 10.0018C23.9087 10.0018 22.3826 10.6339 21.2574 11.7591C20.1321 12.8843 19.5 14.4105 19.5 16.0018C19.5 23.0018 16.5 25.0018 16.5 25.0018H34.5C34.5 25.0018 31.5 23.0018 31.5 16.0018Z" stroke="white" stroke-width="2" stroke-linecap="round" stroke-linejoin="round"/>
<path d="M27.23 29.0018C27.0542 29.3048 26.8018 29.5564 26.4982 29.7313C26.1946 29.9062 25.8504 29.9982 25.5 29.9982C25.1496 29.9982 24.8054 29.9062 24.5018 29.7313C24.1981 29.5564 23.9458 29.3048 23.77 29.0018" stroke="white" stroke-width="2" stroke-linecap="round" stroke-linejoin="round"/>
</svg>
