<svg width="20" height="20" viewBox="0 0 20 20" fill="none" xmlns="http://www.w3.org/2000/svg">
<path d="M14.8444 13.6659L18.6754 17.4969C19.0009 17.8224 19.0009 18.35 18.6754 18.6754C18.35 19.0009 17.8224 19.0009 17.4969 18.6754L13.6659 14.8444C12.3828 15.8708 10.7553 16.4845 8.9845 16.4845C4.84236 16.4845 1.4845 13.1266 1.4845 8.9845C1.4845 4.84236 4.84236 1.4845 8.9845 1.4845C13.1266 1.4845 16.4845 4.84236 16.4845 8.9845C16.4845 10.7553 15.8708 12.3828 14.8444 13.6659ZM8.9845 14.8178C12.2062 14.8178 14.8178 12.2062 14.8178 8.9845C14.8178 5.76284 12.2062 3.15116 8.9845 3.15116C5.76284 3.15116 3.15116 5.76284 3.15116 8.9845C3.15116 12.2062 5.76284 14.8178 8.9845 14.8178Z" fill="#2F3542"/>
</svg>
