<svg width="106" height="34" viewBox="0 0 106 34" fill="none" xmlns="http://www.w3.org/2000/svg">
<g clip-path="url(#clip0_18_2)">
<rect width="106" height="34" fill="white"/>
<path d="M12.7704 33.4467C9.64812 33.3356 7.09364 32.5701 5.09625 31.1484C4.71505 30.8768 3.8067 30.0625 3.50196 29.7191C2.69199 28.8066 2.14132 27.9185 1.77403 26.9332C0.643808 23.9001 1.22549 19.92 3.43781 15.5519C5.33202 11.8123 8.25487 8.10338 13.3542 2.96651C14.1054 2.21063 16.3423 0 16.3567 0C16.3621 0 16.2402 0.189211 16.0867 0.419614C14.7608 2.40941 13.6263 4.75319 13.0083 6.78227C12.0155 10.0381 12.1352 12.8321 13.359 14.9987C14.2032 16.4913 15.6505 17.7841 17.2779 18.4988C20.127 19.7495 24.2982 19.853 29.3922 18.8015C29.7429 18.7287 47.1217 14.5954 68.0121 9.61609C88.9024 4.63632 105.997 0.565235 106 0.568588C106.006 0.572899 57.4659 19.1824 32.268 28.8368C28.2775 30.3653 27.2103 30.7513 25.3343 31.3415C20.5386 32.8504 16.2428 33.5703 12.7704 33.4467Z" fill="black"/>
</g>
<defs>
<clipPath id="clip0_18_2">
<rect width="106" height="34" fill="white"/>
</clipPath>
</defs>
</svg>
