<svg width="32" height="33" viewBox="0 0 32 33" fill="none" xmlns="http://www.w3.org/2000/svg">
<path d="M23 23.0131H8.725L5.2375 3.83812C5.1967 3.60849 5.07691 3.40034 4.89887 3.24969C4.72082 3.09904 4.49572 3.01536 4.2625 3.01312H2" stroke="white" stroke-width="2" stroke-linecap="round" stroke-linejoin="round"/>
<path d="M10 28.0131C11.3807 28.0131 12.5 26.8938 12.5 25.5131C12.5 24.1324 11.3807 23.0131 10 23.0131C8.61929 23.0131 7.5 24.1324 7.5 25.5131C7.5 26.8938 8.61929 28.0131 10 28.0131Z" stroke="white" stroke-width="2" stroke-linecap="round" stroke-linejoin="round"/>
<path d="M23 28.0131C24.3807 28.0131 25.5 26.8938 25.5 25.5131C25.5 24.1324 24.3807 23.0131 23 23.0131C21.6193 23.0131 20.5 24.1324 20.5 25.5131C20.5 26.8938 21.6193 28.0131 23 28.0131Z" stroke="white" stroke-width="2" stroke-linecap="round" stroke-linejoin="round"/>
<path d="M7.8125 18.0131H23.5125C23.98 18.0145 24.433 17.8512 24.7919 17.5517C25.1508 17.2522 25.3927 16.8358 25.475 16.3756L27 8.01312H6" stroke="white" stroke-width="2" stroke-linecap="round" stroke-linejoin="round"/>
</svg>
